
<svg version="1.1" id="Capa_1" xmlns="http://www.w3.org/2000/svg" xmlns:xlink="http://www.w3.org/1999/xlink" x="0px" y="0px"
	 viewBox="0 0 220 148" style="enable-background:new 0 0 220 148;" xml:space="preserve">
<style type="text/css">
	.st0{fill:url(#SVGID_1_);}
	.st1{fill:#FFFFFF;}
</style>
<path class="st1" d="M64.9,64.8c0,1.5,0,3.2-0.3,4.9c-0.2,1.8-0.7,3.4-1.2,5.2c-0.7,1.7-1.4,3.3-2.3,5c-0.9,1.6-2.1,3-3.3,4.3
	c-1.3,1.2-2.8,2.2-4.5,2.9c-1.7,0.7-3.6,1.1-5.7,1.1c-3.2,0-6.3,0-9.4,0L44.5,56c-2,0.7-3.8,1.8-5.2,3c-2.3,2.1-3.1,6-1.4,8.6
	l-6.5,3c-0.9-5.9,1.7-10.5,5.4-13.6C46.2,49.1,64.6,50.6,64.9,64.8z M58.4,62.9c-0.1-5.2-3.2-7.5-7-7.9l-5.9,29.5
	c1.2,0.1,2.6,0.1,3.4-0.2c1.9-0.7,4.2-2.2,6.4-7.1c1-2,1.6-4.3,2.2-6.8C58.1,67.9,58.4,65.4,58.4,62.9z"/>
<path class="st1" d="M90.1,81.6c-2.7,7.1-11.9,9.6-12.4,3c-4.1,6.1-12.9,5-12.2-3C66,75.3,69.1,69.1,76,68.9h9.8l-0.3,1.5
	c-1.2,5.9-2,9.3-2.9,13.8c-0.8,4.4,4.8,1.1,6.1-2.5H90.1z M79.7,72.4c-2.4-4.3-6.9-0.1-8.3,6.1c-1.5,7,1.1,10.6,6.4,3.4L79.7,72.4z"
	/>
<path class="st1" d="M110,81.5c-3.2,8.8-13.7,8.8-12.4,1.5c0.7-3.7,1.3-6.9,1.8-9.9c0.8-4.2-3-1.7-4.8,1.5l-2.7,13.5h-5.3l5.5-27
	h5.1l-2,10.3c4.1-4.3,10.6-4,9,4.4c-0.5,2.7-1,5.6-1.5,8.2c-0.8,4.6,4.6,1.2,5.8-2.5H110z"/>
<path class="st1" d="M128.3,81.5c-2.5,7-10.7,9.6-11.6,3.5c-4.1,5.1-11.2,5.2-9.6-3.7l2.5-12.4h5.2c-1.2,6.3-2.2,10.9-2.9,15.2
	c-0.8,4.2,3,1.7,4.7-1.5c0.1-0.4,0.2-0.8,2.6-13.7h5.2c-1.2,6.3-2,10.7-2.8,15.2c-0.8,4.5,4,1.1,5.2-2.5H128.3z"/>
<path class="st1" d="M156.9,81.6c-3.1,8.3-13.8,9.5-12.2,0.8c0.5-3,1.2-6.1,1.8-9.4c0.9-4.4-3.2-1.1-4.6,2.4c0,0.1-0.1,0.2-0.1,0.3
	c-0.2,1.2-2,11.4-2.2,12.4h-5.1c1.1-6,1.9-10.8,2.7-15c0.7-4.1-3.2-1.7-4.7,1.6c0,0,0,0.1-0.1,0.2l-2.7,13.3h-5.3l3.9-19.3h5.3
	l-0.5,2.6c3.1-3.7,8.6-4.2,9,1.1c4.1-5.5,11-5.9,9.1,3.2l-0.6,3.4c-0.3,1.7-0.3,1.8-0.9,4.9c-0.7,3,4.5,1.2,5.8-2.5H156.9z"/>
<path class="st1" d="M178.2,81.6c-2.7,7.1-11.9,9.6-12.4,3c-4.1,6.1-12.9,5-12.2-3c0.5-6.2,3.6-12.4,10.5-12.7h9.8l-0.3,1.5
	c-1.2,5.9-2,9.3-2.9,13.8c-0.8,4.4,4.8,1.1,6.1-2.5H178.2z M167.7,72.4c-2.4-4.3-6.9-0.1-8.3,6.1c-1.5,7,1.1,10.6,6.4,3.4
	L167.7,72.4z"/>
<path class="st1" d="M194.1,70.1l-3.6,3c-3.1-2.3-6,0.7-8,3.9l-2.2,11.2H175l3.9-19.3h5.3l-0.8,4.2C185.8,69,189.1,67.1,194.1,70.1z
	"/>
</svg>
