<?xml version="1.0" encoding="UTF-8" standalone="no"?>
<svg
   xmlns:dc="http://purl.org/dc/elements/1.1/"
   xmlns:cc="http://creativecommons.org/ns#"
   xmlns:rdf="http://www.w3.org/1999/02/22-rdf-syntax-ns#"
   xmlns:svg="http://www.w3.org/2000/svg"
   xmlns="http://www.w3.org/2000/svg"
   height="36.257488"
   width="162.87904"
   xml:space="preserve"
   viewBox="0 0 162.87904 36.257488"
   y="0px"
   x="0px"
   id="Capa_1"
   version="1.1"><metadata
   id="metadata23"><rdf:RDF><cc:Work
       rdf:about=""><dc:format>image/svg+xml</dc:format><dc:type
         rdf:resource="http://purl.org/dc/dcmitype/StillImage" /></cc:Work></rdf:RDF></metadata><defs
   id="defs21" />
<style
   id="style2"
   type="text/css">
	.st0{fill:url(#SVGID_1_);}
	.st1{fill:#FFFFFF;}
</style>
<path
   style="fill:#ffffff"
   id="path4"
   d="m 33.679043,12.558334 c 0,1.5 0,3.2 -0.3,4.9 -0.2,1.8 -0.7,3.4 -1.2,5.2 -0.7,1.7 -1.4,3.3 -2.3,5 -0.9,1.6 -2.1,3 -3.3,4.3 -1.3,1.2 -2.8,2.2 -4.5,2.9 -1.7,0.7 -3.6,1.1 -5.7,1.1 -3.2,0 -6.3,0 -9.4000002,0 L 13.279043,3.7583335 c -2,0.7 -3.8000002,1.8 -5.2000002,3 -2.3,2.1 -3.1,6.0000005 -1.4,8.6000005 l -6.50000003,3 c -0.9,-5.9 1.70000003,-10.5000005 5.40000003,-13.6000005 9.4000002,-7.9 27.8000002,-6.4 28.1000002,7.8000005 z m -6.5,-1.9 c -0.1,-5.2000005 -3.2,-7.5000005 -7,-7.9000005 l -5.9,29.5000005 c 1.2,0.1 2.6,0.1 3.4,-0.2 1.9,-0.7 4.2,-2.2 6.4,-7.1 1,-2 1.6,-4.3 2.2,-6.8 0.6,-2.5 0.9,-5 0.9,-7.5 z"
   class="st1" />
<path
   style="fill:#ffffff"
   id="path6"
   d="m 58.879043,29.358334 c -2.7,7.1 -11.9,9.6 -12.4,3 -4.1,6.1 -12.9,5 -12.2,-3 0.5,-6.3 3.6,-12.5 10.5,-12.7 h 9.8 l -0.3,1.5 c -1.2,5.9 -2,9.3 -2.9,13.8 -0.8,4.4 4.8,1.1 6.1,-2.5 h 1.4 z m -10.4,-9.2 c -2.4,-4.3 -6.9,-0.1 -8.3,6.1 -1.5,7 1.1,10.6 6.4,3.4 z"
   class="st1" />
<path
   style="fill:#ffffff"
   id="path8"
   d="m 78.779043,29.258334 c -3.2,8.8 -13.7,8.8 -12.4,1.5 0.7,-3.7 1.3,-6.9 1.8,-9.9 0.8,-4.2 -3,-1.7 -4.8,1.5 l -2.7,13.5 h -5.3 l 5.5,-27.0000005 h 5.1 l -2,10.3000005 c 4.1,-4.3 10.6,-4 9,4.4 -0.5,2.7 -1,5.6 -1.5,8.2 -0.8,4.6 4.6,1.2 5.8,-2.5 z"
   class="st1" />
<path
   style="fill:#ffffff"
   id="path10"
   d="m 97.079043,29.258334 c -2.5,7 -10.7,9.6 -11.6,3.5 -4.1,5.1 -11.2,5.2 -9.6,-3.7 l 2.5,-12.4 h 5.2 c -1.2,6.3 -2.2,10.9 -2.9,15.2 -0.8,4.2 3,1.7 4.7,-1.5 0.1,-0.4 0.2,-0.8 2.6,-13.7 h 5.2 c -1.2,6.3 -2,10.7 -2.8,15.2 -0.8,4.5 4,1.1 5.2,-2.5 h 1.5 z"
   class="st1" />
<path
   style="fill:#ffffff"
   id="path12"
   d="m 125.67904,29.358334 c -3.1,8.3 -13.8,9.5 -12.2,0.8 0.5,-3 1.2,-6.1 1.8,-9.4 0.9,-4.4 -3.2,-1.1 -4.6,2.4 0,0.1 -0.1,0.2 -0.1,0.3 -0.2,1.2 -2,11.4 -2.2,12.4 h -5.1 c 1.1,-6 1.9,-10.8 2.7,-15 0.7,-4.1 -3.2,-1.7 -4.7,1.6 0,0 0,0.1 -0.1,0.2 l -2.699997,13.3 h -5.3 l 3.9,-19.3 h 5.299997 l -0.5,2.6 c 3.1,-3.7 8.6,-4.2 9,1.1 4.1,-5.5 11,-5.9 9.1,3.2 l -0.6,3.4 c -0.3,1.7 -0.3,1.8 -0.9,4.9 -0.7,3 4.5,1.2 5.8,-2.5 z"
   class="st1" />
<path
   style="fill:#ffffff"
   id="path14"
   d="m 146.97904,29.358334 c -2.7,7.1 -11.9,9.6 -12.4,3 -4.1,6.1 -12.9,5 -12.2,-3 0.5,-6.2 3.6,-12.4 10.5,-12.7 h 9.8 l -0.3,1.5 c -1.2,5.9 -2,9.3 -2.9,13.8 -0.8,4.4 4.8,1.1 6.1,-2.5 h 1.4 z m -10.5,-9.2 c -2.4,-4.3 -6.9,-0.1 -8.3,6.1 -1.5,7 1.1,10.6 6.4,3.4 z"
   class="st1" />
<path
   style="fill:#ffffff"
   id="path16"
   d="m 162.87904,17.858334 -3.6,3 c -3.1,-2.3 -6,0.7 -8,3.9 l -2.2,11.2 h -5.3 l 3.9,-19.3 h 5.3 l -0.8,4.2 c 2.4,-4.1 5.7,-6 10.7,-3 z"
   class="st1" />
</svg>