<?xml version="1.0" encoding="utf-8"?>
<!-- Generator: Adobe Illustrator 22.0.1, SVG Export Plug-In . SVG Version: 6.00 Build 0)  -->
<svg version="1.1" id="Capa_1" xmlns="http://www.w3.org/2000/svg" xmlns:xlink="http://www.w3.org/1999/xlink" x="0px" y="0px"
	 viewBox="0 0 220 148" style="enable-background:new 0 0 220 148;" xml:space="preserve">
<style type="text/css">
	.st0{fill:url(#SVGID_1_);}
	.st1{fill:#FFFFFF;}
	.st2{fill:none;stroke:#FFFFFF;stroke-miterlimit:10;}
</style>
<g>
	<path class="st1" d="M116.4,65.5c-0.7-0.7-1.1-1.8-1.1-3.3c0-2,0.5-3.6,1.3-4.8c0.9-1.2,2.4-1.9,4.4-1.9c0.5,0,0.9,0,1.4,0.1
		c0.5,0.1,0.8,0.2,1.1,0.4c0.3,0.1,0.4,0.3,0.4,0.5c0,0.2-0.1,0.4-0.3,0.7c-0.2,0.3-0.4,0.4-0.5,0.4c0,0-0.2-0.1-0.4-0.2
		c-0.2-0.1-0.5-0.2-0.8-0.3s-0.7-0.1-1.2-0.1c-1.3,0-2.2,0.4-2.9,1.3c-0.6,0.9-0.9,2.1-0.9,3.7c0,1.1,0.2,1.9,0.7,2.4
		c0.5,0.5,1.2,0.8,2.2,0.8c0.6,0,1-0.1,1.5-0.2c0.4-0.1,0.8-0.3,1-0.4c0.3-0.1,0.4-0.2,0.4-0.2c0.1,0,0.1,0.1,0.1,0.2
		c0,0.2,0,0.4-0.1,0.7c0,0.3-0.1,0.5-0.2,0.6c-0.2,0.2-0.6,0.4-1.2,0.6c-0.6,0.1-1.2,0.2-1.7,0.2C118.2,66.6,117.1,66.2,116.4,65.5z
		"/>
	<path class="st1" d="M125.7,65.7c-0.5-0.6-0.8-1.4-0.8-2.5c0-0.9,0.1-1.7,0.4-2.5c0.3-0.7,0.7-1.3,1.3-1.8c0.6-0.5,1.4-0.7,2.4-0.7
		c1,0,1.8,0.3,2.4,0.9c0.5,0.6,0.8,1.4,0.8,2.5c0,1.6-0.4,2.8-1.1,3.7c-0.7,0.9-1.7,1.3-3,1.3C127.1,66.6,126.3,66.3,125.7,65.7z
		 M130,64.3c0.4-0.6,0.6-1.5,0.6-2.6c0-0.7-0.1-1.2-0.4-1.6c-0.3-0.3-0.7-0.5-1.3-0.5c-0.8,0-1.3,0.3-1.7,0.9
		c-0.4,0.6-0.6,1.5-0.6,2.6c0,0.7,0.1,1.2,0.4,1.6c0.3,0.3,0.7,0.5,1.3,0.5C129,65.2,129.6,64.9,130,64.3z"/>
	<path class="st1" d="M145.6,65.3c0,0.2,0,0.4-0.1,0.7c0,0.2-0.2,0.4-0.4,0.5c-0.2,0.1-0.4,0.1-0.7,0.1c-1,0-1.5-0.6-1.5-1.7
		c0-0.3,0.1-1.2,0.2-2.6c0.1-1.1,0.2-1.6,0.2-1.6c0-0.7-0.4-1.1-1.1-1.1c-0.4,0-0.7,0.2-1.1,0.5c-0.4,0.3-0.7,0.8-0.9,1.4l-0.5,4.7
		c0,0.1-0.1,0.2-0.2,0.3c-0.1,0.1-0.3,0.1-0.5,0.1h-0.2c-0.2,0-0.4,0-0.5-0.1c-0.1-0.1-0.2-0.2-0.2-0.3l0.6-5.4c0-0.4,0-0.6-0.2-0.8
		c-0.2-0.2-0.5-0.3-0.8-0.3c-0.4,0-0.7,0.2-1.1,0.5c-0.4,0.3-0.7,0.8-0.9,1.4l-0.5,4.6c0,0.3-0.3,0.4-0.7,0.4h-0.2
		c-0.2,0-0.4,0-0.5-0.1c-0.1-0.1-0.2-0.2-0.2-0.3l0.6-5.4c0.1-0.7,0.1-1.1,0.1-1.2c0-0.2,0-0.3,0-0.4c0-0.1,0-0.2,0-0.2
		c0-0.2,0.1-0.3,0.4-0.3s0.5-0.1,0.8-0.1c0.2,0,0.3,0.1,0.3,0.3c0.1,0.2,0.1,0.5,0.1,0.8v0.1c0.3-0.5,0.7-0.8,1.1-1.1
		c0.5-0.3,0.9-0.4,1.4-0.4c1.2,0,1.8,0.5,2,1.5c0.3-0.5,0.7-0.9,1.2-1.1c0.5-0.3,0.9-0.4,1.4-0.4c0.7,0,1.2,0.2,1.6,0.5
		c0.3,0.4,0.5,0.8,0.5,1.5c0,0.2-0.1,0.9-0.2,2.1c-0.1,1.4-0.2,2.1-0.2,2.3c0,0.2,0,0.4,0.1,0.5c0.1,0.1,0.2,0.1,0.4,0.1
		c0.1,0,0.2,0,0.2,0c0.1,0,0.1,0,0.2,0C145.6,65.2,145.6,65.2,145.6,65.3z"/>
	<path class="st1" d="M152.8,58.6c0.4,0.2,0.8,0.6,1.1,1.1c0.3,0.5,0.4,1.1,0.4,1.9c0,1-0.2,1.8-0.5,2.6c-0.3,0.8-0.8,1.4-1.3,1.8
		c-0.6,0.4-1.3,0.6-2,0.6c-0.4,0-0.8-0.1-1.1-0.2c-0.3-0.2-0.6-0.3-0.8-0.5l-0.4,3.5c0,0.2-0.3,0.4-0.7,0.4h-0.2
		c-0.2,0-0.4,0-0.5-0.1c-0.1-0.1-0.2-0.2-0.2-0.3l0.9-8.7c0.1-0.5,0.1-0.8,0.1-1.1c0-0.2,0-0.3,0-0.4c0-0.1,0-0.2,0-0.2
		c0-0.2,0.1-0.3,0.4-0.3s0.5-0.1,0.8-0.1c0.3,0,0.4,0.4,0.4,1.1v0.1c0.3-0.5,0.6-0.8,1-1.1c0.4-0.2,0.9-0.4,1.3-0.4
		C151.9,58.2,152.3,58.4,152.8,58.6z M152.1,64.3c0.4-0.7,0.6-1.5,0.6-2.6c0-1.4-0.6-2.1-1.7-2.1c-0.4,0-0.7,0.2-1.1,0.5
		c-0.4,0.3-0.7,0.9-0.9,1.6l-0.3,2.9c0.2,0.2,0.4,0.3,0.7,0.4c0.3,0.1,0.6,0.2,0.9,0.2C151,65.2,151.7,64.9,152.1,64.3z"/>
	<path class="st1" d="M163.2,65.3c0,0.2,0,0.4-0.1,0.7c0,0.2-0.2,0.4-0.4,0.5c-0.2,0.1-0.4,0.1-0.7,0.1c-1,0-1.5-0.5-1.5-1.5
		c-0.3,0.5-0.6,0.9-1,1.1c-0.4,0.3-0.8,0.4-1.3,0.4c-0.4,0-0.8-0.1-1.2-0.3c-0.4-0.2-0.7-0.6-1-1.1c-0.3-0.5-0.4-1.2-0.4-1.9
		c0-1,0.2-1.8,0.5-2.6c0.3-0.8,0.7-1.3,1.3-1.8c0.6-0.4,1.2-0.6,1.9-0.6c0.7,0,1.3,0.3,1.9,0.8c0.1-0.3,0.2-0.5,0.3-0.6
		s0.3-0.2,0.5-0.2h0.1c0.4,0,0.5,0.1,0.5,0.3l-0.1,0.7c-0.1,1-0.2,2-0.3,3.2s-0.2,1.9-0.2,2c0,0.2,0,0.4,0.1,0.5
		c0.1,0.1,0.2,0.1,0.4,0.1c0.1,0,0.2,0,0.2,0c0.1,0,0.1,0,0.2,0C163.2,65.2,163.2,65.2,163.2,65.3z M161,60.1
		c-0.4-0.4-0.9-0.5-1.4-0.5c-0.8,0-1.4,0.3-1.8,1c-0.4,0.6-0.5,1.5-0.5,2.6c0,1.4,0.5,2.1,1.4,2.1c0.4,0,0.7-0.2,1.1-0.5
		c0.4-0.3,0.7-0.9,0.9-1.6l0.2-2.1C160.9,60.9,161,60.6,161,60.1z"/>
	<path class="st1" d="M171.6,65.3c0,0.1,0,0.3-0.1,0.7c0,0.2-0.2,0.4-0.4,0.5c-0.2,0.1-0.4,0.1-0.7,0.1c-0.5,0-0.9-0.1-1.1-0.4
		c-0.3-0.3-0.4-0.7-0.4-1.3l0-0.5l0-0.4c0-0.4,0.1-0.7,0.1-1.1c0-0.3,0.1-0.7,0.1-1c0.1-0.8,0.1-1.3,0.1-1.3c0-0.7-0.4-1.1-1.1-1.1
		c-0.4,0-0.8,0.2-1.2,0.5c-0.4,0.3-0.7,0.8-1,1.6l-0.5,4.5c0,0.3-0.3,0.4-0.7,0.4h-0.2c-0.2,0-0.4,0-0.5-0.1
		c-0.1-0.1-0.2-0.2-0.2-0.3l0.5-5.2c0.1-0.8,0.1-1.3,0.1-1.4c0-0.2,0-0.3,0-0.4c0-0.1,0-0.2,0-0.2c0-0.2,0.1-0.3,0.4-0.3
		s0.5-0.1,0.8-0.1c0.3,0,0.4,0.4,0.4,1.1v0.2c0.4-0.5,0.8-0.8,1.2-1.1s0.9-0.4,1.4-0.4c0.7,0,1.2,0.2,1.6,0.5
		c0.3,0.4,0.5,0.8,0.5,1.5c0,0.2,0,0.5-0.1,0.9c0,0.4-0.1,0.8-0.1,1.2c-0.2,1.3-0.2,2.1-0.2,2.3c0,0.2,0,0.4,0.1,0.5
		c0.1,0.1,0.2,0.1,0.4,0.1c0.1,0,0.2,0,0.3,0c0.1,0,0.1,0,0.2,0C171.6,65.2,171.6,65.2,171.6,65.3z M165.8,57
		c-0.1-0.1-0.1-0.2-0.1-0.3c0-0.1,0-0.2,0.1-0.3c0.6-0.4,1.1-0.6,1.6-0.6c0.2,0,0.5,0,0.6,0.1c0.2,0,0.3,0.1,0.5,0.2
		c0.1,0.1,0.3,0.1,0.4,0.1s0.2,0.1,0.4,0.1c0.2,0,0.3,0,0.4-0.1c0.1-0.1,0.3-0.1,0.4-0.2c0.1-0.1,0.2-0.1,0.3-0.1
		c0.1,0,0.2,0.1,0.3,0.2l0,0c0.1,0.1,0.1,0.2,0.1,0.3c0,0.1-0.1,0.2-0.2,0.4c-0.5,0.4-1.1,0.7-1.6,0.7c-0.4,0-0.8-0.1-1.1-0.2
		c-0.1,0-0.2-0.1-0.3-0.1c-0.2-0.1-0.3-0.1-0.4-0.1c-0.1,0-0.3,0-0.3,0.1c-0.1,0-0.2,0.1-0.3,0.1c-0.1,0-0.1,0.1-0.2,0.1
		c-0.1,0.1-0.2,0.1-0.3,0.1c-0.1,0-0.1,0-0.2-0.1C165.9,57.2,165.9,57.2,165.8,57L165.8,57z"/>
	<path class="st1" d="M174.5,63.1L174.5,63.1c0,0.8,0.2,1.4,0.5,1.7c0.4,0.3,0.9,0.5,1.6,0.5c0.4,0,0.8-0.1,1.1-0.2
		c0.3-0.1,0.6-0.3,0.9-0.4c0,0,0.1,0,0.2-0.1c0.1,0,0.1-0.1,0.2-0.1c0,0,0.1,0,0.1,0c0,0,0,0.1,0,0.2c0,0.1,0,0.2,0,0.4
		c0,0.2,0,0.3-0.1,0.5c-0.1,0.3-0.4,0.6-1,0.8c-0.6,0.2-1.1,0.3-1.6,0.3c-1,0-1.9-0.2-2.6-0.7c-0.7-0.5-1-1.3-1-2.5
		c0-1.6,0.4-2.8,1.1-3.7c0.7-0.9,1.8-1.4,3.2-1.4c0.7,0,1.2,0.1,1.6,0.3c0.4,0.2,0.7,0.5,0.9,0.8c0.2,0.3,0.3,0.6,0.3,1
		c0,1-0.4,1.7-1.1,2.2c-0.8,0.5-1.7,0.7-2.8,0.7C175.4,63.2,174.9,63.2,174.5,63.1z M175.3,60.2c-0.4,0.4-0.6,1-0.7,1.7h1
		c0.6,0,1.2-0.1,1.8-0.3c0.6-0.2,0.9-0.6,0.9-1.1c0-0.3-0.1-0.5-0.3-0.7c-0.2-0.2-0.5-0.3-0.9-0.3C176.3,59.6,175.7,59.8,175.3,60.2
		z"/>
	<path class="st1" d="M186.1,58.4c0.1,0.1,0.2,0.3,0.2,0.5c0,0.2-0.1,0.4-0.2,0.7c-0.1,0.2-0.2,0.4-0.3,0.4c0,0-0.1,0-0.2-0.1
		c-0.1-0.1-0.2-0.1-0.4-0.1c-0.4,0-0.7,0.2-1,0.5c-0.3,0.3-0.6,0.8-0.8,1.5l-0.5,4.4c0,0.3-0.3,0.4-0.7,0.4h-0.2
		c-0.2,0-0.4,0-0.5-0.1c-0.1-0.1-0.2-0.2-0.2-0.3l0.6-5.4c0.1-0.5,0.1-0.9,0.1-1.3l0-0.6c0-0.2,0.1-0.3,0.4-0.3s0.5-0.1,0.8-0.1
		c0.3,0,0.5,0.3,0.5,0.9c0,0.1,0,0.2,0,0.3c0.2-0.4,0.5-0.8,0.9-1c0.3-0.3,0.7-0.4,1.1-0.4C185.8,58.2,186,58.3,186.1,58.4z"/>
	<path class="st1" d="M187.7,65.7c-0.5-0.6-0.8-1.4-0.8-2.5c0-0.9,0.1-1.7,0.4-2.5c0.3-0.7,0.7-1.3,1.3-1.8c0.6-0.5,1.4-0.7,2.4-0.7
		c1,0,1.8,0.3,2.4,0.9c0.5,0.6,0.8,1.4,0.8,2.5c0,1.6-0.4,2.8-1.1,3.7c-0.7,0.9-1.7,1.3-3,1.3C189.1,66.6,188.3,66.3,187.7,65.7z
		 M192,64.3c0.4-0.6,0.6-1.5,0.6-2.6c0-0.7-0.1-1.2-0.4-1.6c-0.3-0.3-0.7-0.5-1.3-0.5c-0.8,0-1.3,0.3-1.7,0.9
		c-0.4,0.6-0.6,1.5-0.6,2.6c0,0.7,0.1,1.2,0.4,1.6c0.3,0.3,0.7,0.5,1.3,0.5C191,65.2,191.6,64.9,192,64.3z"/>
	<path class="st1" d="M32.5,83.9c0,0.2,0,0.4-0.1,0.7c0,0.2-0.2,0.4-0.4,0.5c-0.2,0.1-0.4,0.1-0.7,0.1c-1,0-1.5-0.5-1.5-1.5
		c-0.3,0.5-0.6,0.9-1,1.1c-0.4,0.3-0.9,0.4-1.3,0.4c-0.5,0-0.9-0.1-1.3-0.3c-0.4-0.2-0.8-0.6-1.1-1.1c-0.3-0.5-0.4-1.2-0.4-2
		c0-1,0.2-1.8,0.5-2.6c0.3-0.7,0.8-1.3,1.3-1.8c0.6-0.4,1.2-0.6,2-0.6c0.8,0,1.4,0.2,2,0.7l0.4-3.8c0-0.3,0.3-0.4,0.7-0.4h0.2
		c0.5,0,0.7,0.1,0.7,0.4c-0.1,1-0.3,2.7-0.6,5.3c-0.3,2.6-0.4,4-0.4,4.1c0,0.2,0,0.4,0.1,0.5c0.1,0.1,0.2,0.1,0.4,0.1
		c0.1,0,0.1,0,0.2,0c0.1,0,0.1,0,0.2,0C32.5,83.8,32.5,83.8,32.5,83.9z M30.3,78.7c-0.4-0.4-1-0.5-1.6-0.5c-0.9,0-1.5,0.3-1.9,1
		c-0.4,0.6-0.6,1.5-0.6,2.6c0,0.8,0.1,1.3,0.4,1.6c0.3,0.3,0.7,0.5,1.2,0.5c0.4,0,0.7-0.2,1.1-0.5c0.4-0.3,0.7-0.9,0.9-1.6
		L30.3,78.7z"/>
	<path class="st1" d="M35.1,81.7L35.1,81.7c0,0.8,0.2,1.4,0.5,1.7c0.4,0.3,0.9,0.5,1.6,0.5c0.4,0,0.8-0.1,1.1-0.2
		c0.3-0.1,0.6-0.3,0.9-0.4c0,0,0.1,0,0.2-0.1c0.1,0,0.1-0.1,0.2-0.1c0,0,0.1,0,0.1,0c0,0,0,0.1,0,0.2c0,0.1,0,0.2,0,0.4
		c0,0.2,0,0.3-0.1,0.5c-0.1,0.3-0.4,0.6-1,0.8c-0.6,0.2-1.1,0.3-1.6,0.3c-1,0-1.9-0.2-2.6-0.7c-0.7-0.5-1-1.3-1-2.5
		c0-1.6,0.4-2.8,1.1-3.7c0.7-0.9,1.8-1.4,3.2-1.4c0.7,0,1.2,0.1,1.6,0.3c0.4,0.2,0.7,0.5,0.9,0.8c0.2,0.3,0.3,0.6,0.3,1
		c0,1-0.4,1.7-1.1,2.2c-0.8,0.5-1.7,0.7-2.8,0.7C36,81.8,35.5,81.8,35.1,81.7z M35.9,78.8c-0.4,0.4-0.6,1-0.7,1.7h1
		c0.6,0,1.2-0.1,1.8-0.3c0.6-0.2,0.9-0.6,0.9-1.1c0-0.3-0.1-0.5-0.3-0.7c-0.2-0.2-0.5-0.3-0.9-0.3C36.9,78.2,36.3,78.4,35.9,78.8z"
		/>
	<path class="st1" d="M46.6,84.8c-0.3-0.3-0.5-0.7-0.5-1.4c0-0.2,0.1-1,0.2-2.3c0.1-1.4,0.2-2.3,0.3-2.8H46c-0.1,0-0.2,0-0.2-0.1
		s-0.1-0.2-0.1-0.3c0-0.6,0.2-0.9,0.5-0.9h0.6l0.2-1.6c0-0.1,0.1-0.2,0.2-0.3s0.3-0.1,0.5-0.1h0.2c0.4,0,0.7,0.1,0.7,0.4L48.3,77
		h1.2c0.1,0,0.2,0,0.2,0.1c0,0,0,0.1,0,0.2c0,0.2-0.1,0.4-0.2,0.7c-0.1,0.2-0.3,0.4-0.6,0.4h-0.8c-0.1,0.5-0.1,1.4-0.3,2.7
		c-0.1,1.3-0.2,2-0.2,2.1c0,0.3,0.1,0.5,0.2,0.6c0.1,0.1,0.3,0.2,0.5,0.2c0.2,0,0.3,0,0.4,0c0.1,0,0.2,0,0.2,0c0.1,0,0.1,0,0.1,0.1
		c0,0.2,0,0.4-0.1,0.7c0,0.2-0.2,0.4-0.4,0.5c-0.2,0.1-0.5,0.1-0.8,0.1C47.4,85.2,47,85.1,46.6,84.8z"/>
	<path class="st1" d="M58.3,83.9c0,0.2,0,0.4-0.1,0.7c0,0.2-0.2,0.4-0.4,0.5c-0.2,0.1-0.4,0.1-0.7,0.1c-1,0-1.5-0.5-1.5-1.5
		c-0.4,0.5-0.8,0.9-1.2,1.1c-0.5,0.3-0.9,0.4-1.4,0.4c-0.7,0-1.2-0.2-1.6-0.5c-0.3-0.4-0.5-0.9-0.5-1.5c0-0.1,0-0.3,0-0.5l0.5-5.3
		c0-0.3,0.3-0.4,0.7-0.4h0.2c0.5,0,0.7,0.1,0.7,0.4l-0.5,5.1c0,0.1,0,0.2,0,0.3c0,0.4,0.1,0.6,0.2,0.8c0.2,0.2,0.4,0.3,0.8,0.3
		c0.4,0,0.8-0.2,1.2-0.5c0.4-0.3,0.7-0.9,1-1.6l0.4-4.4c0-0.3,0.3-0.4,0.7-0.4h0.2c0.5,0,0.7,0.1,0.7,0.4c-0.1,0.8-0.2,1.9-0.3,3.1
		l0,0.5c-0.2,1.4-0.2,2.2-0.2,2.3c0,0.2,0,0.4,0.1,0.5c0.1,0.1,0.2,0.1,0.4,0.1c0.1,0,0.1,0,0.2,0c0.1,0,0.1,0,0.2,0
		C58.3,83.8,58.3,83.8,58.3,83.9z"/>
	<path class="st1" d="M60,85c-0.5-0.1-0.7-0.4-0.7-0.8c0-0.3,0-0.5,0.1-0.6c0.1-0.2,0.1-0.2,0.2-0.2c0,0,0.1,0.1,0.3,0.2
		c0.2,0.1,0.4,0.2,0.7,0.3c0.2,0.1,0.5,0.1,0.8,0.1c0.4,0,0.8-0.1,1.1-0.3c0.3-0.2,0.4-0.5,0.4-0.8c0-0.3-0.1-0.6-0.3-0.7
		c-0.2-0.1-0.6-0.3-1-0.5c-0.6-0.2-1-0.5-1.3-0.8c-0.3-0.3-0.5-0.8-0.5-1.4c0-0.8,0.3-1.4,0.8-1.9c0.5-0.4,1.2-0.7,2-0.7
		c0.5,0,1,0.1,1.4,0.2c0.4,0.1,0.7,0.3,0.7,0.6c0,0.1-0.1,0.3-0.2,0.6c-0.2,0.2-0.3,0.3-0.4,0.3c0,0-0.1,0-0.3-0.1
		c-0.1-0.1-0.3-0.1-0.5-0.2c-0.2-0.1-0.4-0.1-0.6-0.1c-0.4,0-0.7,0.1-0.9,0.2c-0.2,0.2-0.3,0.4-0.3,0.7c0,0.3,0.1,0.6,0.3,0.7
		c0.2,0.2,0.6,0.3,1,0.5c0.4,0.1,0.7,0.3,0.9,0.4c0.2,0.1,0.4,0.3,0.6,0.6c0.2,0.3,0.2,0.6,0.2,1c0,0.5-0.1,1-0.4,1.4
		c-0.3,0.4-0.6,0.7-1.1,1c-0.5,0.2-1,0.3-1.6,0.3C61,85.2,60.5,85.1,60,85z"/>
	<path class="st1" d="M75.5,77.2c0.4,0.2,0.8,0.6,1.1,1.1c0.3,0.5,0.4,1.2,0.4,1.9c0,1-0.2,1.8-0.5,2.6c-0.3,0.8-0.8,1.3-1.4,1.8
		c-0.6,0.4-1.3,0.6-2.1,0.6c-0.4,0-0.8-0.1-1.1-0.3c-0.3-0.2-0.6-0.4-0.9-0.6c-0.1,0.2-0.2,0.4-0.3,0.6c-0.1,0.1-0.3,0.2-0.5,0.2H70
		c-0.2,0-0.3,0-0.4-0.1c-0.1-0.1-0.1-0.1-0.1-0.3l1.1-11c0-0.3,0.3-0.4,0.7-0.4h0.2c0.5,0,0.7,0.1,0.7,0.4l-0.5,4.5
		c0.3-0.5,0.6-0.8,1-1.1c0.4-0.2,0.8-0.3,1.3-0.3C74.6,76.9,75,77,75.5,77.2z M74.7,82.9c0.4-0.7,0.6-1.5,0.6-2.6
		c0-0.7-0.2-1.3-0.4-1.6c-0.3-0.3-0.7-0.5-1.3-0.5c-0.4,0-0.7,0.2-1.1,0.5c-0.4,0.3-0.7,0.9-0.9,1.6l-0.2,2.1l-0.1,0.9
		c0.4,0.4,0.9,0.5,1.5,0.5C73.6,83.9,74.3,83.5,74.7,82.9z"/>
	<path class="st1" d="M85.9,83.9c0,0.2,0,0.4-0.1,0.7c0,0.2-0.2,0.4-0.4,0.5c-0.2,0.1-0.4,0.1-0.7,0.1c-1,0-1.5-0.5-1.5-1.5
		c-0.4,0.5-0.8,0.9-1.2,1.1c-0.5,0.3-0.9,0.4-1.4,0.4c-0.7,0-1.2-0.2-1.6-0.5c-0.3-0.4-0.5-0.9-0.5-1.5c0-0.1,0-0.3,0-0.5l0.5-5.3
		c0-0.3,0.3-0.4,0.7-0.4h0.2c0.5,0,0.7,0.1,0.7,0.4l-0.5,5.1c0,0.1,0,0.2,0,0.3c0,0.4,0.1,0.6,0.2,0.8c0.2,0.2,0.4,0.3,0.8,0.3
		c0.4,0,0.8-0.2,1.2-0.5c0.4-0.3,0.7-0.9,1-1.6l0.4-4.4c0-0.3,0.3-0.4,0.7-0.4h0.2c0.5,0,0.7,0.1,0.7,0.4c-0.1,0.8-0.2,1.9-0.3,3.1
		l0,0.5c-0.2,1.4-0.2,2.2-0.2,2.3c0,0.2,0,0.4,0.1,0.5c0.1,0.1,0.2,0.1,0.4,0.1c0.1,0,0.1,0,0.2,0c0.1,0,0.1,0,0.2,0
		C85.9,83.8,85.9,83.8,85.9,83.9z"/>
	<path class="st1" d="M88.7,81.7L88.7,81.7c0,0.8,0.2,1.4,0.5,1.7c0.4,0.3,0.9,0.5,1.6,0.5c0.4,0,0.8-0.1,1.1-0.2
		c0.3-0.1,0.6-0.3,0.9-0.4c0,0,0.1,0,0.2-0.1c0.1,0,0.1-0.1,0.2-0.1c0,0,0.1,0,0.1,0c0,0,0,0.1,0,0.2c0,0.1,0,0.2,0,0.4
		c0,0.2,0,0.3-0.1,0.5c-0.1,0.3-0.4,0.6-1,0.8c-0.6,0.2-1.1,0.3-1.6,0.3c-1,0-1.9-0.2-2.6-0.7c-0.7-0.5-1-1.3-1-2.5
		c0-1.6,0.4-2.8,1.1-3.7c0.7-0.9,1.8-1.4,3.2-1.4c0.7,0,1.2,0.1,1.6,0.3c0.4,0.2,0.7,0.5,0.9,0.8c0.2,0.3,0.3,0.6,0.3,1
		c0,1-0.4,1.7-1.1,2.2c-0.8,0.5-1.7,0.7-2.8,0.7C89.6,81.8,89.2,81.8,88.7,81.7z M89.6,78.8c-0.4,0.4-0.6,1-0.7,1.7h1
		c0.6,0,1.2-0.1,1.8-0.3c0.6-0.2,0.9-0.6,0.9-1.1c0-0.3-0.1-0.5-0.3-0.7c-0.2-0.2-0.5-0.3-0.9-0.3C90.5,78.2,89.9,78.4,89.6,78.8z"
		/>
	<path class="st1" d="M102.9,83.9c0,0.1,0,0.3-0.1,0.7c0,0.2-0.2,0.4-0.4,0.5c-0.2,0.1-0.4,0.1-0.7,0.1c-0.5,0-0.9-0.1-1.1-0.4
		c-0.3-0.3-0.4-0.7-0.4-1.3l0-0.5l0-0.4c0-0.4,0.1-0.7,0.1-1.1c0-0.3,0.1-0.7,0.1-1c0.1-0.8,0.1-1.3,0.1-1.3c0-0.7-0.4-1.1-1.1-1.1
		c-0.4,0-0.8,0.2-1.2,0.5c-0.4,0.3-0.7,0.8-1,1.6l-0.5,4.5c0,0.3-0.3,0.4-0.7,0.4H96c-0.2,0-0.4,0-0.5-0.1c-0.1-0.1-0.2-0.2-0.2-0.3
		l0.5-5.2c0.1-0.8,0.1-1.3,0.1-1.4c0-0.2,0-0.3,0-0.4c0-0.1,0-0.2,0-0.2c0-0.2,0.1-0.3,0.4-0.3s0.5-0.1,0.8-0.1
		c0.3,0,0.4,0.4,0.4,1.1v0.2c0.4-0.5,0.8-0.8,1.2-1.1s0.9-0.4,1.4-0.4c0.7,0,1.2,0.2,1.6,0.5c0.3,0.4,0.5,0.8,0.5,1.5
		c0,0.2,0,0.5-0.1,0.9c0,0.4-0.1,0.8-0.1,1.2c-0.2,1.3-0.2,2.1-0.2,2.3c0,0.2,0,0.4,0.1,0.5c0.1,0.1,0.2,0.1,0.4,0.1
		c0.1,0,0.2,0,0.3,0c0.1,0,0.1,0,0.2,0C102.8,83.8,102.9,83.8,102.9,83.9z"/>
	<path class="st1" d="M104.9,84.3c-0.5-0.6-0.8-1.4-0.8-2.5c0-0.9,0.1-1.7,0.4-2.5c0.3-0.7,0.7-1.3,1.3-1.8c0.6-0.5,1.4-0.7,2.4-0.7
		c1,0,1.8,0.3,2.4,0.9c0.5,0.6,0.8,1.4,0.8,2.5c0,1.6-0.4,2.8-1.1,3.7c-0.7,0.9-1.7,1.3-3,1.3C106.3,85.2,105.5,84.9,104.9,84.3z
		 M109.2,82.9c0.4-0.6,0.6-1.5,0.6-2.6c0-0.7-0.1-1.2-0.4-1.6c-0.3-0.3-0.7-0.5-1.3-0.5c-0.8,0-1.3,0.3-1.7,0.9
		c-0.4,0.6-0.6,1.5-0.6,2.6c0,0.7,0.1,1.2,0.4,1.6c0.3,0.3,0.7,0.5,1.3,0.5C108.2,83.9,108.8,83.6,109.2,82.9z"/>
	<path class="st1" d="M113.4,85c-0.5-0.1-0.7-0.4-0.7-0.8c0-0.3,0-0.5,0.1-0.6c0.1-0.2,0.1-0.2,0.2-0.2c0,0,0.1,0.1,0.3,0.2
		c0.2,0.1,0.4,0.2,0.7,0.3c0.2,0.1,0.5,0.1,0.8,0.1c0.4,0,0.8-0.1,1.1-0.3c0.3-0.2,0.4-0.5,0.4-0.8c0-0.3-0.1-0.6-0.3-0.7
		c-0.2-0.1-0.6-0.3-1-0.5c-0.6-0.2-1-0.5-1.3-0.8c-0.3-0.3-0.5-0.8-0.5-1.4c0-0.8,0.3-1.4,0.8-1.9c0.5-0.4,1.2-0.7,2-0.7
		c0.5,0,1,0.1,1.4,0.2c0.4,0.1,0.7,0.3,0.7,0.6c0,0.1-0.1,0.3-0.2,0.6c-0.2,0.2-0.3,0.3-0.4,0.3c0,0-0.1,0-0.3-0.1
		c-0.1-0.1-0.3-0.1-0.5-0.2c-0.2-0.1-0.4-0.1-0.6-0.1c-0.4,0-0.7,0.1-0.9,0.2c-0.2,0.2-0.3,0.4-0.3,0.7c0,0.3,0.1,0.6,0.3,0.7
		c0.2,0.2,0.6,0.3,1,0.5c0.4,0.1,0.7,0.3,0.9,0.4c0.2,0.1,0.4,0.3,0.6,0.6c0.2,0.3,0.2,0.6,0.2,1c0,0.5-0.1,1-0.4,1.4
		c-0.3,0.4-0.6,0.7-1.1,1c-0.5,0.2-1,0.3-1.6,0.3C114.4,85.2,113.9,85.1,113.4,85z"/>
	<path class="st1" d="M135,83.9c0,0.2,0,0.4-0.1,0.7c0,0.2-0.2,0.4-0.4,0.5c-0.2,0.1-0.4,0.1-0.7,0.1c-1,0-1.5-0.6-1.5-1.7
		c0-0.3,0.1-1.2,0.2-2.6c0.1-1.1,0.2-1.6,0.2-1.6c0-0.7-0.4-1.1-1.1-1.1c-0.4,0-0.7,0.2-1.1,0.5c-0.4,0.3-0.7,0.8-0.9,1.4l-0.5,4.7
		c0,0.1-0.1,0.2-0.2,0.3c-0.1,0.1-0.3,0.1-0.5,0.1h-0.2c-0.2,0-0.4,0-0.5-0.1c-0.1-0.1-0.2-0.2-0.2-0.3l0.6-5.4c0-0.4,0-0.6-0.2-0.8
		s-0.5-0.3-0.8-0.3c-0.4,0-0.7,0.2-1.1,0.5c-0.4,0.3-0.7,0.8-0.9,1.4l-0.5,4.6c0,0.3-0.3,0.4-0.7,0.4h-0.2c-0.2,0-0.4,0-0.5-0.1
		c-0.1-0.1-0.2-0.2-0.2-0.3l0.6-5.4c0.1-0.7,0.1-1.1,0.1-1.2c0-0.2,0-0.3,0-0.4c0-0.1,0-0.2,0-0.2c0-0.2,0.1-0.3,0.4-0.3
		s0.5-0.1,0.8-0.1c0.2,0,0.3,0.1,0.3,0.3c0.1,0.2,0.1,0.5,0.1,0.8v0.1c0.3-0.5,0.7-0.8,1.1-1.1c0.5-0.3,0.9-0.4,1.4-0.4
		c1.2,0,1.8,0.5,2,1.5c0.3-0.5,0.7-0.9,1.2-1.1c0.5-0.3,0.9-0.4,1.4-0.4c0.7,0,1.2,0.2,1.6,0.5c0.3,0.4,0.5,0.8,0.5,1.5
		c0,0.2-0.1,0.9-0.2,2.1c-0.1,1.4-0.2,2.1-0.2,2.3c0,0.2,0,0.4,0.1,0.5c0.1,0.1,0.2,0.1,0.4,0.1c0.1,0,0.2,0,0.2,0
		c0.1,0,0.1,0,0.2,0C134.9,83.8,135,83.8,135,83.9z"/>
	<path class="st1" d="M137,84.3c-0.5-0.6-0.8-1.4-0.8-2.5c0-0.9,0.1-1.7,0.4-2.5c0.3-0.7,0.7-1.3,1.3-1.8c0.6-0.5,1.4-0.7,2.4-0.7
		c1,0,1.8,0.3,2.4,0.9c0.5,0.6,0.8,1.4,0.8,2.5c0,1.6-0.4,2.8-1.1,3.7c-0.7,0.9-1.7,1.3-3,1.3C138.4,85.2,137.6,84.9,137,84.3z
		 M141.3,82.9c0.4-0.6,0.6-1.5,0.6-2.6c0-0.7-0.1-1.2-0.4-1.6c-0.3-0.3-0.7-0.5-1.3-0.5c-0.8,0-1.3,0.3-1.7,0.9
		c-0.4,0.6-0.6,1.5-0.6,2.6c0,0.7,0.1,1.2,0.4,1.6c0.3,0.3,0.7,0.5,1.3,0.5C140.3,83.9,140.9,83.6,141.3,82.9z"/>
	<path class="st1" d="M157,83.9c0,0.2,0,0.4-0.1,0.7c0,0.2-0.2,0.4-0.4,0.5c-0.2,0.1-0.4,0.1-0.7,0.1c-1,0-1.5-0.6-1.5-1.7
		c0-0.3,0.1-1.2,0.2-2.6c0.1-1.1,0.2-1.6,0.2-1.6c0-0.7-0.4-1.1-1.1-1.1c-0.4,0-0.7,0.2-1.1,0.5c-0.4,0.3-0.7,0.8-0.9,1.4l-0.5,4.7
		c0,0.1-0.1,0.2-0.2,0.3c-0.1,0.1-0.3,0.1-0.5,0.1h-0.2c-0.2,0-0.4,0-0.5-0.1c-0.1-0.1-0.2-0.2-0.2-0.3l0.6-5.4c0-0.4,0-0.6-0.2-0.8
		s-0.5-0.3-0.8-0.3c-0.4,0-0.7,0.2-1.1,0.5c-0.4,0.3-0.7,0.8-0.9,1.4l-0.5,4.6c0,0.3-0.3,0.4-0.7,0.4h-0.2c-0.2,0-0.4,0-0.5-0.1
		c-0.1-0.1-0.2-0.2-0.2-0.3l0.6-5.4c0.1-0.7,0.1-1.1,0.1-1.2c0-0.2,0-0.3,0-0.4c0-0.1,0-0.2,0-0.2c0-0.2,0.1-0.3,0.4-0.3
		s0.5-0.1,0.8-0.1c0.2,0,0.3,0.1,0.3,0.3c0.1,0.2,0.1,0.5,0.1,0.8v0.1c0.3-0.5,0.7-0.8,1.1-1.1c0.5-0.3,0.9-0.4,1.4-0.4
		c1.2,0,1.8,0.5,2,1.5c0.3-0.5,0.7-0.9,1.2-1.1c0.5-0.3,0.9-0.4,1.4-0.4c0.7,0,1.2,0.2,1.6,0.5c0.3,0.4,0.5,0.8,0.5,1.5
		c0,0.2-0.1,0.9-0.2,2.1c-0.1,1.4-0.2,2.1-0.2,2.3c0,0.2,0,0.4,0.1,0.5c0.1,0.1,0.2,0.1,0.4,0.1c0.1,0,0.2,0,0.2,0
		c0.1,0,0.1,0,0.2,0C156.9,83.8,157,83.8,157,83.9z"/>
	<path class="st1" d="M159.8,81.7L159.8,81.7c0,0.8,0.2,1.4,0.5,1.7c0.4,0.3,0.9,0.5,1.6,0.5c0.4,0,0.8-0.1,1.1-0.2
		c0.3-0.1,0.6-0.3,0.9-0.4c0,0,0.1,0,0.2-0.1c0.1,0,0.1-0.1,0.2-0.1c0,0,0.1,0,0.1,0c0,0,0,0.1,0,0.2c0,0.1,0,0.2,0,0.4
		c0,0.2,0,0.3-0.1,0.5c-0.1,0.3-0.4,0.6-1,0.8c-0.6,0.2-1.1,0.3-1.6,0.3c-1,0-1.9-0.2-2.6-0.7c-0.7-0.5-1-1.3-1-2.5
		c0-1.6,0.4-2.8,1.1-3.7c0.7-0.9,1.8-1.4,3.2-1.4c0.7,0,1.2,0.1,1.6,0.3c0.4,0.2,0.7,0.5,0.9,0.8c0.2,0.3,0.3,0.6,0.3,1
		c0,1-0.4,1.7-1.1,2.2c-0.8,0.5-1.7,0.7-2.8,0.7C160.7,81.8,160.3,81.8,159.8,81.7z M160.7,78.8c-0.4,0.4-0.6,1-0.7,1.7h1
		c0.6,0,1.2-0.1,1.8-0.3c0.6-0.2,0.9-0.6,0.9-1.1c0-0.3-0.1-0.5-0.3-0.7c-0.2-0.2-0.5-0.3-0.9-0.3C161.6,78.2,161,78.4,160.7,78.8z"
		/>
	<path class="st1" d="M174,83.9c0,0.1,0,0.3-0.1,0.7c0,0.2-0.2,0.4-0.4,0.5c-0.2,0.1-0.4,0.1-0.7,0.1c-0.5,0-0.9-0.1-1.1-0.4
		c-0.3-0.3-0.4-0.7-0.4-1.3l0-0.5l0-0.4c0-0.4,0.1-0.7,0.1-1.1c0-0.3,0.1-0.7,0.1-1c0.1-0.8,0.1-1.3,0.1-1.3c0-0.7-0.4-1.1-1.1-1.1
		c-0.4,0-0.8,0.2-1.2,0.5c-0.4,0.3-0.7,0.8-1,1.6l-0.5,4.5c0,0.3-0.3,0.4-0.7,0.4h-0.2c-0.2,0-0.4,0-0.5-0.1
		c-0.1-0.1-0.2-0.2-0.2-0.3l0.5-5.2c0.1-0.8,0.1-1.3,0.1-1.4c0-0.2,0-0.3,0-0.4c0-0.1,0-0.2,0-0.2c0-0.2,0.1-0.3,0.4-0.3
		s0.5-0.1,0.8-0.1c0.3,0,0.4,0.4,0.4,1.1v0.2c0.4-0.5,0.8-0.8,1.2-1.1c0.5-0.2,0.9-0.4,1.4-0.4c0.7,0,1.2,0.2,1.6,0.5
		c0.3,0.4,0.5,0.8,0.5,1.5c0,0.2,0,0.5-0.1,0.9c0,0.4-0.1,0.8-0.1,1.2c-0.2,1.3-0.2,2.1-0.2,2.3c0,0.2,0,0.4,0.1,0.5
		c0.1,0.1,0.2,0.1,0.4,0.1c0.1,0,0.2,0,0.3,0c0.1,0,0.1,0,0.2,0C173.9,83.8,174,83.8,174,83.9z"/>
	<path class="st1" d="M176.3,84.8c-0.3-0.3-0.5-0.7-0.5-1.4c0-0.2,0.1-1,0.2-2.3c0.1-1.4,0.2-2.3,0.3-2.8h-0.6c-0.1,0-0.2,0-0.2-0.1
		c0-0.1-0.1-0.2-0.1-0.3c0-0.6,0.2-0.9,0.5-0.9h0.6l0.2-1.6c0-0.1,0.1-0.2,0.2-0.3c0.1-0.1,0.3-0.1,0.5-0.1h0.2
		c0.4,0,0.7,0.1,0.7,0.4L178,77h1.2c0.1,0,0.2,0,0.2,0.1c0,0,0,0.1,0,0.2c0,0.2-0.1,0.4-0.2,0.7s-0.3,0.4-0.6,0.4h-0.8
		c-0.1,0.5-0.1,1.4-0.3,2.7c-0.1,1.3-0.2,2-0.2,2.1c0,0.3,0.1,0.5,0.2,0.6c0.1,0.1,0.3,0.2,0.5,0.2c0.2,0,0.3,0,0.4,0
		c0.1,0,0.2,0,0.2,0c0.1,0,0.1,0,0.1,0.1c0,0.2,0,0.4-0.1,0.7c0,0.2-0.2,0.4-0.4,0.5c-0.2,0.1-0.5,0.1-0.8,0.1
		C177,85.2,176.6,85.1,176.3,84.8z"/>
	<path class="st1" d="M181.3,84.3c-0.5-0.6-0.8-1.4-0.8-2.5c0-0.9,0.1-1.7,0.4-2.5c0.3-0.7,0.7-1.3,1.3-1.8c0.6-0.5,1.4-0.7,2.4-0.7
		c1,0,1.8,0.3,2.4,0.9c0.5,0.6,0.8,1.4,0.8,2.5c0,1.6-0.4,2.8-1.1,3.7c-0.7,0.9-1.7,1.3-3,1.3C182.7,85.2,181.9,84.9,181.3,84.3z
		 M185.6,82.9c0.4-0.6,0.6-1.5,0.6-2.6c0-0.7-0.1-1.2-0.4-1.6c-0.3-0.3-0.7-0.5-1.3-0.5c-0.8,0-1.3,0.3-1.7,0.9
		c-0.4,0.6-0.6,1.5-0.6,2.6c0,0.7,0.1,1.2,0.4,1.6c0.3,0.3,0.7,0.5,1.3,0.5C184.6,83.9,185.2,83.6,185.6,82.9z"/>
	<path class="st1" d="M189.8,85c-0.5-0.1-0.7-0.4-0.7-0.8c0-0.3,0-0.5,0.1-0.6c0.1-0.2,0.1-0.2,0.2-0.2c0,0,0.1,0.1,0.3,0.2
		c0.2,0.1,0.4,0.2,0.7,0.3c0.2,0.1,0.5,0.1,0.8,0.1c0.4,0,0.8-0.1,1.1-0.3c0.3-0.2,0.4-0.5,0.4-0.8c0-0.3-0.1-0.6-0.3-0.7
		c-0.2-0.1-0.6-0.3-1-0.5c-0.6-0.2-1-0.5-1.3-0.8c-0.3-0.3-0.5-0.8-0.5-1.4c0-0.8,0.3-1.4,0.8-1.9c0.5-0.4,1.2-0.7,2-0.7
		c0.5,0,1,0.1,1.4,0.2c0.4,0.1,0.7,0.3,0.7,0.6c0,0.1-0.1,0.3-0.2,0.6c-0.2,0.2-0.3,0.3-0.4,0.3c0,0-0.1,0-0.3-0.1
		c-0.1-0.1-0.3-0.1-0.5-0.2c-0.2-0.1-0.4-0.1-0.6-0.1c-0.4,0-0.7,0.1-0.9,0.2c-0.2,0.2-0.3,0.4-0.3,0.7c0,0.3,0.1,0.6,0.3,0.7
		c0.2,0.2,0.6,0.3,1,0.5c0.4,0.1,0.7,0.3,0.9,0.4c0.2,0.1,0.4,0.3,0.6,0.6c0.2,0.3,0.2,0.6,0.2,1c0,0.5-0.1,1-0.4,1.4
		c-0.3,0.4-0.6,0.7-1.1,1c-0.5,0.2-1,0.3-1.6,0.3C190.8,85.2,190.3,85.1,189.8,85z"/>
</g>
<line class="st2" x1="203.2" y1="52.6" x2="203.2" y2="93.6"/>
</svg>
